PathFileType	4	(X/Y/Z)	./resultDataOpenSim/trcMotMarkerGrf/sub06/qtm-13-07.trc
DataRate	CameraRate	NumFrames	NumMarkers	Units	OrigDataRate	OrigDataStartFrame	OrigNumFrames
250.000000	250.000000	14	24	m	250.000000	130	519
Frame#	Time	L.Toe.Tip			R.Toe.Tip			L.Ankle.Lat			R.Ankle.Lat			L.Ankle.Med			R.Ankle.Med			L.Heel			R.Heel			L.Knee.Lat			R.Knee.Lat			L.Knee.Med			R.Knee.Med			L.Thigh.Upper			R.Thigh.Upper			L.ASIS			R.ASIS			V.Sacral			L.Acromium			R.Acromium			C7			L.Elbow			R.Elbow			L.Wrist.Lat			R.Wrist.Lat
		X1	Y1	Z1	X2	Y2	Z2	X3	Y3	Z3	X4	Y4	Z4	X5	Y5	Z5	X6	Y6	Z6	X7	Y7	Z7	X8	Y8	Z8	X9	Y9	Z9	X10	Y10	Z10	X11	Y11	Z11	X12	Y12	Z12	X13	Y13	Z13	X14	Y14	Z14	X15	Y15	Z15	X16	Y16	Z16	X17	Y17	Z17	X18	Y18	Z18	X19	Y19	Z19	X20	Y20	Z20	X21	Y21	Z21	X22	Y22	Z22	X23	Y23	Z23	X24	Y24	Z24

130	0.516	-0.26001332	0.076289579	-0.11858234	-0.78717495	0.03499399	0.06085728	-0.3879413	0.08118136	-0.1200335	-0.91987289	0.068437994	0.0784539	-0.37517103	0.10127052	-0.036493932	-0.89650258	0.086245231	-0.0073206707	-0.44104055	0.036756277	-0.057068005	-0.97552262	0.049655433	0.014363201	-0.42972445	0.45344161	-0.1367135	-0.76786841	0.42644871	0.11535831	-0.43604452	0.4491905	-0.01265666	-0.80119017	0.43007077	-0.014753088	-0.61898731	0.80077165	-0.17162636	-0.67058297	0.7773678	0.17483179	-0.55739674	0.84021324	-0.11714403	-0.56475767	0.8255885	0.13043246	-0.74591066	0.91712787	0.011248479	-0.62499199	1.3174975	-0.17970563	-0.58319546	1.3118077	0.17927534	-0.68153099	1.3519772	0.0072206774	-0.73979814	1.0220058	-0.22230313	-0.60149101	0.99964038	0.28124649	-0.64502497	0.806683	-0.29548398	-0.37833645	0.88881814	0.25004085
131	0.52	-0.24126217	0.078778697	-0.11777377	-0.78716824	0.034942799	0.060858964	-0.36969939	0.081857256	-0.12048338	-0.91919968	0.069108476	0.078126585	-0.35779558	0.10215143	-0.036997759	-0.89573345	0.086560963	-0.0076848549	-0.4222715	0.036404474	-0.058080594	-0.97519212	0.05050157	0.013906894	-0.42208225	0.45190267	-0.13588158	-0.76440784	0.42576887	0.11518968	-0.42820742	0.4477	-0.011629071	-0.79695853	0.42947723	-0.01518568	-0.61169147	0.7985043	-0.17186862	-0.6658055	0.77552636	0.17406582	-0.5503442	0.83763983	-0.1171414	-0.55865102	0.82351983	0.13077844	-0.73956498	0.91510977	0.0091400207	-0.61866247	1.3152978	-0.18007611	-0.57649639	1.3097897	0.17904464	-0.67504682	1.3502335	0.006926969	-0.73430713	1.0202423	-0.2221614	-0.59270667	0.99756809	0.28151722	-0.64134121	0.80460104	-0.29629923	-0.36873117	0.88909958	0.24908167
132	0.524	-0.22304331	0.08144482	-0.11693336	-0.78716882	0.034908131	0.060872527	-0.35182748	0.082735017	-0.12090888	-0.91875258	0.069783893	0.077829771	-0.34089669	0.10318408	-0.037497063	-0.89494249	0.086916954	-0.0080386829	-0.40406118	0.036262795	-0.059142818	-0.97485579	0.051425235	0.013461248	-0.41440824	0.45032795	-0.13496444	-0.76080625	0.42507888	0.11505249	-0.42043764	0.44621053	-0.010608685	-0.79264796	0.42889552	-0.015616466	-0.60444496	0.79619173	-0.17211984	-0.66063504	0.77377222	0.173587	-0.54319646	0.83504483	-0.11712869	-0.55248159	0.82146699	0.13110069	-0.73233139	0.91295155	0.0070171959	-0.61227887	1.3131066	-0.18044804	-0.56981838	1.3077559	0.17879446	-0.66839136	1.3483219	0.006661532	-0.72872111	1.0184585	-0.22200861	-0.58391195	0.99548575	0.2817267	-0.63752383	0.80253071	-0.29704912	-0.35923211	0.88931162	0.24817141
133	0.528	-0.20543195	0.0843476	-0.11602377	-0.787139	0.034903339	0.060890455	-0.33437822	0.083783853	-0.12129539	-0.91860182	0.070445213	0.077567916	-0.32457973	0.1042911	-0.037952549	-0.89416953	0.087311672	-0.0083546899	-0.38642645	0.03625149	-0.060225958	-0.97451852	0.05242569	0.013055828	-0.40668244	0.44875805	-0.13396386	-0.75706747	0.42437219	0.11493486	-0.41269721	0.44474015	-0.0095903052	-0.78826631	0.42831918	-0.016025404	-0.59711293	0.79386329	-0.17231061	-0.65532294	0.77225099	0.17380907	-0.53593821	0.8324417	-0.11711307	-0.54624187	0.81942922	0.13139653	-0.72443485	0.91077941	0.005109522	-0.60577554	1.3109277	-0.18079827	-0.56314744	1.3057139	0.17851215	-0.66163949	1.346309	0.0064043945	-0.7230359	1.0166592	-0.22184582	-0.57512319	0.99340549	0.2818859	-0.63362278	0.80046343	-0.297747	-0.34981769	0.88945605	0.24727161
134	0.532	-0.18848002	0.087522478	-0.11504164	-0.78707083	0.034917308	0.060899941	-0.31748296	0.08496031	-0.12163902	-0.91853392	0.071134754	0.077349745	-0.30893359	0.10539424	-0.038333343	-0.8934256	0.087746667	-0.0086152092	-0.36934098	0.036312017	-0.061276855	-0.97418002	0.0535103	0.012725472	-0.3988731	0.44723408	-0.13288627	-0.75320597	0.42365319	0.114813	-0.40496118	0.44329889	-0.0085606023	-0.78380836	0.42773398	-0.016404138	-0.58958374	0.79154411	-0.17241757	-0.64993981	0.77098109	0.17476021	-0.52861136	0.82984965	-0.11709343	-0.53994162	0.81740397	0.13167201	-0.71639846	0.90875196	0.00387283	-0.5991795	1.3087659	-0.18112744	-0.55647327	1.3036745	0.1781949	-0.65490028	1.3443182	0.0061089364	-0.71725454	1.014854	-0.22167826	-0.56635571	0.99133551	0.28200048	-0.62965765	0.79839487	-0.29840771	-0.3404859	0.88954763	0.24634442
135	0.536	-0.17222226	0.090953413	-0.11402466	-0.78698161	0.034929402	0.060895876	-0.30124382	0.086225561	-0.12192748	-0.91832615	0.071901172	0.077180882	-0.29397894	0.1064423	-0.038600593	-0.89269723	0.088226198	-0.0088179691	-0.35277935	0.036387667	-0.062262492	-0.97383759	0.054687778	0.01248636	-0.39097185	0.44578044	-0.13174941	-0.74926452	0.42292689	0.11465637	-0.39724183	0.4418893	-0.0075183822	-0.7792687	0.42712157	-0.01674596	-0.58192858	0.7892315	-0.17248017	-0.64438658	0.76984902	0.17591653	-0.5212567	0.82728533	-0.11707343	-0.53359299	0.81538555	0.13193497	-0.70872231	0.90692618	0.0034578936	-0.59256473	1.3066249	-0.18145603	-0.54980337	1.3016484	0.17785257	-0.64826072	1.3424402	0.0057368891	-0.71138096	1.0130537	-0.22150975	-0.55762007	0.98928223	0.28206265	-0.62562931	0.79632333	-0.29904052	-0.33123513	0.88959868	0.24538131
136	0.54	-0.15666746	0.094562282	-0.11300667	-0.78688866	0.034930843	0.060883859	-0.28567086	0.087552524	-0.12213511	-0.91793562	0.072754592	0.077064332	-0.27967092	0.10741511	-0.038705342	-0.89196408	0.088755099	-0.0089587256	-0.33674132	0.036402536	-0.063213631	-0.97348722	0.055962215	0.012331695	-0.38300502	0.44439957	-0.13059286	-0.74529537	0.42218752	0.11444281	-0.38957054	0.44050492	-0.006467428	-0.77464123	0.42646443	-0.017044797	-0.57427734	0.78691103	-0.17254954	-0.63869934	0.76870725	0.1766608	-0.51386419	0.8247546	-0.11706085	-0.52719419	0.81337293	0.13218588	-0.70172289	0.90527226	0.0034858692	-0.5859763	1.3045067	-0.1818045	-0.54314736	1.2996432	0.17749364	-0.64173375	1.3406631	0.0052896956	-0.70541535	1.011268	-0.22134175	-0.54892227	0.98725027	0.28206004	-0.62153545	0.79424914	-0.29964532	-0.3220458	0.88960583	0.24439649
137	0.544	-0.14179886	0.098225856	-0.11198073	-0.78680304	0.034920089	0.06087417	-0.27073776	0.08890163	-0.12222749	-0.91742606	0.073679729	0.077005407	-0.26595363	0.10829901	-0.038628048	-0.89121322	0.089339129	-0.0090233159	-0.32124433	0.036285431	-0.064205979	-0.97312421	0.057336484	0.012250038	-0.37500886	0.44308075	-0.12946901	-0.741284	0.42141955	0.11419726	-0.38197036	0.43913187	-0.0054098999	-0.76991366	0.42574904	-0.017295701	-0.56665911	0.78457965	-0.17263578	-0.63298503	0.76741812	0.17675744	-0.5063962	0.82226259	-0.11705248	-0.52072258	0.8113764	0.13240716	-0.69551103	0.90373629	0.0033554299	-0.57941925	1.3024127	-0.18218168	-0.53650435	1.2976604	0.17712052	-0.63525999	1.3388987	0.0048059354	-0.6993546	1.0095032	-0.22117466	-0.54026773	0.98524304	0.2819862	-0.61737281	0.79217525	-0.30021599	-0.31290973	0.88955677	0.24340782
138	0.548	-0.12759076	0.10179457	-0.11091626	-0.78673943	0.034888822	0.060877247	-0.25642807	0.090205207	-0.12216624	-0.91685585	0.074663964	0.077012392	-0.25277972	0.10907953	-0.038391094	-0.89044612	0.089987421	-0.0090002763	-0.30629943	0.036027125	-0.065270357	-0.97274423	0.058816204	0.012242313	-0.36696771	0.44181791	-0.12840881	-0.73711902	0.42061587	0.11399347	-0.37444694	0.43775342	-0.0043509553	-0.76507207	0.42497202	-0.017492242	-0.55902603	0.7822502	-0.17271254	-0.62718468	0.76588765	0.17633459	-0.49882826	0.81982263	-0.11703443	-0.51413637	0.80940864	0.132561	-0.68986031	0.90222421	0.0027490318	-0.57286132	1.3003423	-0.18257784	-0.5298695	1.2956981	0.17673522	-0.62875847	1.337073	0.0043291212	-0.69319613	1.0077623	-0.22101265	-0.53166798	0.98326611	0.2818448	-0.61313664	0.79010624	-0.30074756	-0.30384217	0.88943908	0.2424249
139	0.552	-0.11401954	0.10508725	-0.10979389	-0.78671301	0.034824142	0.060900445	-0.24273459	0.09138403	-0.12192596	-0.91624934	0.075707714	0.077094258	-0.24008484	0.10975181	-0.038012895	-0.88967541	0.090708675	-0.0088941623	-0.29193589	0.035693485	-0.066300941	-0.97234241	0.060411661	0.012324083	-0.35877454	0.44063001	-0.12739567	-0.73268774	0.41978632	0.11388029	-0.36699479	0.43635416	-0.0033047046	-0.76010911	0.42414593	-0.017629163	-0.55133398	0.77994436	-0.17275303	-0.62109204	0.764105	0.17564126	-0.49115844	0.81744859	-0.11699384	-0.50739305	0.80747709	0.13260789	-0.68411596	0.90061282	0.0018270745	-0.56626356	1.2983064	-0.18297913	-0.52323852	1.2937554	0.17634098	-0.62218336	1.3351792	0.0038767633	-0.686941	1.0060458	-0.22086374	-0.52313591	0.98132753	0.28164297	-0.60882535	0.78804521	-0.30124266	-0.29486137	0.88924865	0.24144834
140	0.556	-0.10106801	0.10790382	-0.10861471	-0.7867171	0.034730152	0.060944235	-0.22965379	0.092369244	-0.12150782	-0.91560463	0.076820728	0.077256846	-0.22781893	0.11030361	-0.037488123	-0.88890883	0.091505043	-0.0087210959	-0.27824112	0.035366043	-0.067076967	-0.97191055	0.062133611	0.012513573	-0.3503481	0.4395498	-0.12640009	-0.72800494	0.41893295	0.1138222	-0.35960293	0.4349241	-0.0022913298	-0.75502958	0.42329198	-0.017703986	-0.5435718	0.77768344	-0.17275539	-0.61435869	0.76202503	0.17490144	-0.4833991	0.8151437	-0.11692609	-0.50048149	0.80558858	0.13253538	-0.67753253	0.89884681	0.0010028134	-0.55963766	1.2963401	-0.18339636	-0.51660577	1.2918332	0.17594059	-0.615536	1.3332562	0.0034374455	-0.68059155	1.0043532	-0.22073062	-0.51467653	0.97943238	0.28138362	-0.60444197	0.78599221	-0.30171159	-0.28597456	0.88899249	0.24047655
141	0.56	-0.088730144	0.11008301	-0.10739295	-0.78671493	0.034637563	0.061002547	-0.2171812	0.093106302	-0.12092954	-0.91490673	0.078011843	0.077499198	-0.2160184	0.11069367	-0.036824245	-0.88813237	0.09237563	-0.0084922799	-0.26531956	0.035073616	-0.067405682	-0.97143508	0.063986913	0.012812309	-0.34177513	0.43858157	-0.12544102	-0.72321534	0.41803193	0.11374412	-0.35225324	0.43346126	-0.0013280141	-0.74984888	0.42242649	-0.017710836	-0.53574619	0.77548024	-0.1727385	-0.60657162	0.75948902	0.17431254	-0.47557172	0.81290341	-0.1168363	-0.49344415	0.80375061	0.13237651	-0.66982858	0.89698828	0.00069138633	-0.55301817	1.2944618	-0.18385195	-0.50996564	1.2899333	0.17553491	-0.60883566	1.331345	0.0029897922	-0.67414498	1.0026798	-0.2206038	-0.50628957	0.97757819	0.28106759	-0.59998738	0.78394728	-0.30216534	-0.27718371	0.88867844	0.2395126
142	0.564	-0.07700909	0.11155004	-0.106147	-0.78666951	0.034576409	0.061069478	-0.20531233	0.093550356	-0.12021196	-0.91414542	0.079281592	0.07781618	-0.2047757	0.11087035	-0.036057439	-0.88731065	0.093323762	-0.0082085415	-0.25321524	0.034776887	-0.067249312	-0.97089431	0.065971462	0.01319419	-0.33317647	0.43769238	-0.12457526	-0.71846253	0.41705568	0.11361605	-0.34491844	0.43196759	-0.00042444117	-0.74458438	0.42155676	-0.017629392	-0.52785368	0.77333812	-0.17271311	-0.59778942	0.75651056	0.17398326	-0.46769541	0.81072702	-0.11673203	-0.48636948	0.80196413	0.13220702	-0.66136694	0.89516364	0.0011472476	-0.5463832	1.2926282	-0.1843402	-0.50331381	1.2880584	0.17512234	-0.60209568	1.3294665	0.002518527	-0.66759281	1.0010121	-0.22046226	-0.49797564	0.97575684	0.28069592	-0.59545563	0.78191362	-0.30260856	-0.26849044	0.88830689	0.23856212
143	0.568	-0.065910191	0.11231114	-0.10488792	-0.78657398	0.03454987	0.061144189	-0.19405013	0.093665267	-0.11938026	-0.91331643	0.080627173	0.078203672	-0.1941477	0.11079522	-0.035228347	-0.88640441	0.094357463	-0.0078733482	-0.24189564	0.03439978	-0.066732504	-0.97026119	0.068086416	0.013622774	-0.32451468	0.4368448	-0.12383643	-0.71375902	0.41600315	0.11346687	-0.33756641	0.4304453	0.0004158986	-0.73924516	0.42068267	-0.017429302	-0.51987934	0.77126237	-0.17266925	-0.58888748	0.75353746	0.17376613	-0.45977389	0.8086204	-0.11661117	-0.47935219	0.80021653	0.13212239	-0.65283464	0.8934613	0.002170304	-0.53967072	1.290777	-0.18483379	-0.4966422	1.2862126	0.17469882	-0.59531935	1.3276225	0.0020171172	-0.66092807	0.99933212	-0.22028067	-0.4897341	0.97396093	0.28026531	-0.59083959	0.77989562	-0.3030386	-0.25989028	0.88787512	0.23762494
